<?xml version="1.0" encoding="UTF-8"?>
<svg id="Layer_1" data-name="Layer 1" xmlns="http://www.w3.org/2000/svg" viewBox="0 0 632.19 529.1">
  <defs>
    <style>
      .cls-1 {
        fill: white
      }
    </style>
  </defs>
  <path class="cls-1" d="M359.57,249.72l44.19-67.62,223.55-103.73c6.61-1.95,4.69,3.3,4.43,7.68-2.46,42.24-10,89.14-17.15,130.35l-76.97,61.5c-25.7,94.72-89.45,176.83-171.81,229.12-19.94,12.66-40.1,28.44-64.25,19.42-87.53-32.69-185.25-159.35-207.53-249.28l-74.77-61.31L0,74.79l233.07,108.71,43.93,66.17c10.78-9.86,22.32-42.22,35.81-45.16,24.85-5.42,28.86,35.53,46.76,45.21ZM298.05,492.68l-40.28-97.39-121.69-87.26c19.42,57.01,65.47,107.86,110.08,147.46,5.31,4.72,48.35,40.51,51.88,37.18ZM333.69,492.68c4.3,3.51,53.34-36.46,59.85-42.17,42.06-36.98,82.68-84.98,98.87-139.23l-115.09,84.13-43.63,97.27Z"/>
  <path class="cls-1" d="M521.63,100.68l-5.39-22.83-203.69-50.09-190.56,50.76c-9.31,2.16-3.64,20.27-5.38,22.17l-28.64-10.17c-3.65-18.48,4.57-30.6,21.23-37.75C134.31,41.97,292.86-.47,315.86,0l217.76,54.65c11.94,5.8,16.12,18.39,13.43,30.93l-25.43,15.1Z"/>
</svg>
