<svg xmlns="http://www.w3.org/2000/svg" version="1.1" xmlns:xlink="http://www.w3.org/1999/xlink" xmlns:svgjs="http://svgjs.dev/svgjs" viewBox="0 0 1422 800" opacity="1"><g fill="none" stroke-width="1.25" stroke="hsl(0, 0%, 100%)" stroke-linecap="round" stroke-dasharray="0 125" transform="matrix(1.2,0,0,1.2,-142.20001182556155,-80.0000061035156)"><line x1="1106" y1="400" x2="316" y2="400" transform="rotate(0, 711, 400)" opacity="0.62"></line><line x1="1272.5" y1="400" x2="149.5" y2="400" transform="rotate(3, 711, 400)" opacity="0.57"></line><line x1="1004.5" y1="400" x2="417.5" y2="400" transform="rotate(6, 711, 400)" opacity="0.58"></line><line x1="980.5" y1="400" x2="441.5" y2="400" transform="rotate(9, 711, 400)" opacity="0.70"></line><line x1="771" y1="400" x2="651" y2="400" transform="rotate(12, 711, 400)" opacity="0.13"></line><line x1="1162.5" y1="400" x2="259.5" y2="400" transform="rotate(15, 711, 400)" opacity="0.74"></line><line x1="1035.5" y1="400" x2="386.5" y2="400" transform="rotate(18, 711, 400)" opacity="0.37"></line><line x1="1395.5" y1="400" x2="26.5" y2="400" transform="rotate(21, 711, 400)" opacity="0.49"></line><line x1="742.5" y1="400" x2="679.5" y2="400" transform="rotate(24, 711, 400)" opacity="0.39"></line><line x1="757.5" y1="400" x2="664.5" y2="400" transform="rotate(27, 711, 400)" opacity="0.20"></line><line x1="1216.5" y1="400" x2="205.5" y2="400" transform="rotate(30, 711, 400)" opacity="0.16"></line><line x1="909.5" y1="400" x2="512.5" y2="400" transform="rotate(33, 711, 400)" opacity="0.38"></line><line x1="1244.5" y1="400" x2="177.5" y2="400" transform="rotate(36, 711, 400)" opacity="0.86"></line><line x1="1373" y1="400" x2="49" y2="400" transform="rotate(39, 711, 400)" opacity="0.38"></line><line x1="804" y1="400" x2="618" y2="400" transform="rotate(42, 711, 400)" opacity="0.25"></line><line x1="1062" y1="400" x2="360" y2="400" transform="rotate(45, 711, 400)" opacity="0.41"></line><line x1="1067" y1="400" x2="355" y2="400" transform="rotate(48, 711, 400)" opacity="0.09"></line><line x1="1077" y1="400" x2="345" y2="400" transform="rotate(51, 711, 400)" opacity="0.07"></line><line x1="1314" y1="400" x2="108" y2="400" transform="rotate(54, 711, 400)" opacity="0.67"></line><line x1="1141" y1="400" x2="281" y2="400" transform="rotate(57, 711, 400)" opacity="0.97"></line><line x1="1220" y1="400" x2="202" y2="400" transform="rotate(60, 711, 400)" opacity="0.58"></line><line x1="712" y1="400" x2="710" y2="400" transform="rotate(63, 711, 400)" opacity="0.37"></line><line x1="887.5" y1="400" x2="534.5" y2="400" transform="rotate(66, 711, 400)" opacity="0.35"></line><line x1="1159.5" y1="400" x2="262.5" y2="400" transform="rotate(69, 711, 400)" opacity="0.22"></line><line x1="931" y1="400" x2="491" y2="400" transform="rotate(72, 711, 400)" opacity="0.97"></line><line x1="1260.5" y1="400" x2="161.5" y2="400" transform="rotate(75, 711, 400)" opacity="0.27"></line><line x1="968" y1="400" x2="454" y2="400" transform="rotate(78, 711, 400)" opacity="0.90"></line><line x1="1215.5" y1="400" x2="206.5" y2="400" transform="rotate(81, 711, 400)" opacity="0.75"></line><line x1="948.5" y1="400" x2="473.5" y2="400" transform="rotate(84, 711, 400)" opacity="0.93"></line><line x1="968.5" y1="400" x2="453.5" y2="400" transform="rotate(87, 711, 400)" opacity="0.59"></line><line x1="813" y1="400" x2="609" y2="400" transform="rotate(90, 711, 400)" opacity="0.13"></line><line x1="738" y1="400" x2="684" y2="400" transform="rotate(93, 711, 400)" opacity="0.09"></line><line x1="1342.5" y1="400" x2="79.5" y2="400" transform="rotate(96, 711, 400)" opacity="0.90"></line><line x1="1339" y1="400" x2="83" y2="400" transform="rotate(99, 711, 400)" opacity="0.53"></line><line x1="1201" y1="400" x2="221" y2="400" transform="rotate(102, 711, 400)" opacity="0.70"></line><line x1="987" y1="400" x2="435" y2="400" transform="rotate(105, 711, 400)" opacity="0.20"></line><line x1="727" y1="400" x2="695" y2="400" transform="rotate(108, 711, 400)" opacity="0.76"></line><line x1="972" y1="400" x2="450" y2="400" transform="rotate(111, 711, 400)" opacity="0.29"></line><line x1="892" y1="400" x2="530" y2="400" transform="rotate(114, 711, 400)" opacity="0.82"></line><line x1="841" y1="400" x2="581" y2="400" transform="rotate(117, 711, 400)" opacity="0.73"></line><line x1="1348.5" y1="400" x2="73.5" y2="400" transform="rotate(120, 711, 400)" opacity="0.51"></line><line x1="1322" y1="400" x2="100" y2="400" transform="rotate(123, 711, 400)" opacity="0.38"></line><line x1="1177.5" y1="400" x2="244.5" y2="400" transform="rotate(126, 711, 400)" opacity="0.09"></line><line x1="1198.5" y1="400" x2="223.5" y2="400" transform="rotate(129, 711, 400)" opacity="0.13"></line><line x1="828.5" y1="400" x2="593.5" y2="400" transform="rotate(132, 711, 400)" opacity="0.65"></line><line x1="1032" y1="400" x2="390" y2="400" transform="rotate(135, 711, 400)" opacity="0.15"></line><line x1="1194.5" y1="400" x2="227.5" y2="400" transform="rotate(138, 711, 400)" opacity="0.19"></line><line x1="1211" y1="400" x2="211" y2="400" transform="rotate(141, 711, 400)" opacity="0.37"></line><line x1="802" y1="400" x2="620" y2="400" transform="rotate(144, 711, 400)" opacity="0.69"></line><line x1="1238" y1="400" x2="184" y2="400" transform="rotate(147, 711, 400)" opacity="0.41"></line><line x1="812" y1="400" x2="610" y2="400" transform="rotate(150, 711, 400)" opacity="0.20"></line><line x1="1233" y1="400" x2="189" y2="400" transform="rotate(153, 711, 400)" opacity="0.77"></line><line x1="983.5" y1="400" x2="438.5" y2="400" transform="rotate(156, 711, 400)" opacity="0.08"></line><line x1="1229" y1="400" x2="193" y2="400" transform="rotate(159, 711, 400)" opacity="0.11"></line><line x1="1253" y1="400" x2="169" y2="400" transform="rotate(162, 711, 400)" opacity="0.40"></line><line x1="742" y1="400" x2="680" y2="400" transform="rotate(165, 711, 400)" opacity="0.49"></line><line x1="817" y1="400" x2="605" y2="400" transform="rotate(168, 711, 400)" opacity="0.89"></line><line x1="1182" y1="400" x2="240" y2="400" transform="rotate(171, 711, 400)" opacity="0.70"></line><line x1="1067.5" y1="400" x2="354.5" y2="400" transform="rotate(174, 711, 400)" opacity="0.43"></line><line x1="875.5" y1="400" x2="546.5" y2="400" transform="rotate(177, 711, 400)" opacity="0.22"></line><line x1="1375" y1="400" x2="47" y2="400" transform="rotate(180, 711, 400)" opacity="0.51"></line><line x1="877" y1="400" x2="545" y2="400" transform="rotate(183, 711, 400)" opacity="0.85"></line><line x1="746.5" y1="400" x2="675.5" y2="400" transform="rotate(186, 711, 400)" opacity="0.76"></line><line x1="791.5" y1="400" x2="630.5" y2="400" transform="rotate(189, 711, 400)" opacity="0.16"></line><line x1="1394" y1="400" x2="28" y2="400" transform="rotate(192, 711, 400)" opacity="0.22"></line><line x1="764" y1="400" x2="658" y2="400" transform="rotate(195, 711, 400)" opacity="0.15"></line><line x1="694.5" y1="400" x2="727.5" y2="400" transform="rotate(198, 711, 400)" opacity="0.47"></line><line x1="707.5" y1="400" x2="714.5" y2="400" transform="rotate(201, 711, 400)" opacity="0.35"></line><line x1="1394" y1="400" x2="28" y2="400" transform="rotate(204, 711, 400)" opacity="0.33"></line><line x1="1313" y1="400" x2="109" y2="400" transform="rotate(207, 711, 400)" opacity="0.34"></line><line x1="1083" y1="400" x2="339" y2="400" transform="rotate(210, 711, 400)" opacity="0.21"></line><line x1="1231" y1="400" x2="191" y2="400" transform="rotate(213, 711, 400)" opacity="0.52"></line><line x1="1236.5" y1="400" x2="185.5" y2="400" transform="rotate(216, 711, 400)" opacity="0.27"></line><line x1="1027" y1="400" x2="395" y2="400" transform="rotate(219, 711, 400)" opacity="0.68"></line><line x1="1198.5" y1="400" x2="223.5" y2="400" transform="rotate(222, 711, 400)" opacity="0.96"></line><line x1="1325.5" y1="400" x2="96.5" y2="400" transform="rotate(225, 711, 400)" opacity="0.23"></line><line x1="784.5" y1="400" x2="637.5" y2="400" transform="rotate(228, 711, 400)" opacity="0.20"></line><line x1="921" y1="400" x2="501" y2="400" transform="rotate(231, 711, 400)" opacity="0.12"></line><line x1="1327.5" y1="400" x2="94.5" y2="400" transform="rotate(234, 711, 400)" opacity="0.51"></line><line x1="924.5" y1="400" x2="497.5" y2="400" transform="rotate(237, 711, 400)" opacity="0.86"></line><line x1="1206" y1="400" x2="216" y2="400" transform="rotate(240, 711, 400)" opacity="0.75"></line><line x1="1079" y1="400" x2="343" y2="400" transform="rotate(243, 711, 400)" opacity="0.41"></line><line x1="1264" y1="400" x2="158" y2="400" transform="rotate(246, 711, 400)" opacity="0.74"></line><line x1="685.5" y1="400" x2="736.5" y2="400" transform="rotate(249, 711, 400)" opacity="0.34"></line><line x1="990" y1="400" x2="432" y2="400" transform="rotate(252, 711, 400)" opacity="0.89"></line><line x1="1315.5" y1="400" x2="106.5" y2="400" transform="rotate(255, 711, 400)" opacity="0.27"></line><line x1="782" y1="400" x2="640" y2="400" transform="rotate(258, 711, 400)" opacity="0.25"></line><line x1="733" y1="400" x2="689" y2="400" transform="rotate(261, 711, 400)" opacity="0.27"></line><line x1="819.5" y1="400" x2="602.5" y2="400" transform="rotate(264, 711, 400)" opacity="0.22"></line><line x1="899.5" y1="400" x2="522.5" y2="400" transform="rotate(267, 711, 400)" opacity="0.71"></line><line x1="1149" y1="400" x2="273" y2="400" transform="rotate(270, 711, 400)" opacity="0.45"></line><line x1="1061.5" y1="400" x2="360.5" y2="400" transform="rotate(273, 711, 400)" opacity="0.70"></line><line x1="931" y1="400" x2="491" y2="400" transform="rotate(276, 711, 400)" opacity="0.51"></line><line x1="1360" y1="400" x2="62" y2="400" transform="rotate(279, 711, 400)" opacity="0.59"></line><line x1="891" y1="400" x2="531" y2="400" transform="rotate(282, 711, 400)" opacity="0.51"></line><line x1="1321.5" y1="400" x2="100.5" y2="400" transform="rotate(285, 711, 400)" opacity="0.52"></line><line x1="1060" y1="400" x2="362" y2="400" transform="rotate(288, 711, 400)" opacity="0.57"></line><line x1="742.5" y1="400" x2="679.5" y2="400" transform="rotate(291, 711, 400)" opacity="0.40"></line><line x1="751.5" y1="400" x2="670.5" y2="400" transform="rotate(294, 711, 400)" opacity="0.28"></line><line x1="1183.5" y1="400" x2="238.5" y2="400" transform="rotate(297, 711, 400)" opacity="0.43"></line><line x1="964" y1="400" x2="458" y2="400" transform="rotate(300, 711, 400)" opacity="0.34"></line><line x1="1132.5" y1="400" x2="289.5" y2="400" transform="rotate(303, 711, 400)" opacity="0.73"></line><line x1="1054.5" y1="400" x2="367.5" y2="400" transform="rotate(306, 711, 400)" opacity="0.83"></line><line x1="1231" y1="400" x2="191" y2="400" transform="rotate(309, 711, 400)" opacity="0.40"></line><line x1="1124.5" y1="400" x2="297.5" y2="400" transform="rotate(312, 711, 400)" opacity="0.31"></line><line x1="847.5" y1="400" x2="574.5" y2="400" transform="rotate(315, 711, 400)" opacity="0.73"></line><line x1="841.5" y1="400" x2="580.5" y2="400" transform="rotate(318, 711, 400)" opacity="0.98"></line><line x1="842.5" y1="400" x2="579.5" y2="400" transform="rotate(321, 711, 400)" opacity="0.09"></line><line x1="1318.5" y1="400" x2="103.5" y2="400" transform="rotate(324, 711, 400)" opacity="0.16"></line><line x1="1278.5" y1="400" x2="143.5" y2="400" transform="rotate(327, 711, 400)" opacity="0.36"></line><line x1="852.5" y1="400" x2="569.5" y2="400" transform="rotate(330, 711, 400)" opacity="0.29"></line><line x1="804" y1="400" x2="618" y2="400" transform="rotate(333, 711, 400)" opacity="0.44"></line><line x1="1216" y1="400" x2="206" y2="400" transform="rotate(336, 711, 400)" opacity="0.94"></line><line x1="1110" y1="400" x2="312" y2="400" transform="rotate(339, 711, 400)" opacity="1.00"></line><line x1="1241" y1="400" x2="181" y2="400" transform="rotate(342, 711, 400)" opacity="0.81"></line><line x1="859.5" y1="400" x2="562.5" y2="400" transform="rotate(345, 711, 400)" opacity="0.84"></line><line x1="881" y1="400" x2="541" y2="400" transform="rotate(348, 711, 400)" opacity="0.78"></line><line x1="1196" y1="400" x2="226" y2="400" transform="rotate(351, 711, 400)" opacity="0.77"></line><line x1="933.5" y1="400" x2="488.5" y2="400" transform="rotate(354, 711, 400)" opacity="0.45"></line><line x1="1392" y1="400" x2="30" y2="400" transform="rotate(357, 711, 400)" opacity="0.26"></line><line x1="951.5" y1="400" x2="470.5" y2="400" transform="rotate(360, 711, 400)" opacity="0.88"></line><line x1="875" y1="400" x2="547" y2="400" transform="rotate(363, 711, 400)" opacity="0.33"></line><line x1="1236.5" y1="400" x2="185.5" y2="400" transform="rotate(366, 711, 400)" opacity="0.29"></line><line x1="1040" y1="400" x2="382" y2="400" transform="rotate(369, 711, 400)" opacity="0.88"></line><line x1="814.5" y1="400" x2="607.5" y2="400" transform="rotate(372, 711, 400)" opacity="0.94"></line><line x1="853.5" y1="400" x2="568.5" y2="400" transform="rotate(375, 711, 400)" opacity="0.37"></line></g></svg>
