<?xml version="1.0" encoding="UTF-8"?>
<svg id="Layer_1" xmlns="http://www.w3.org/2000/svg" version="1.1" viewBox="0 0 600 600">
  <!-- Generator: Adobe Illustrator 29.8.2, SVG Export Plug-In . SVG Version: 2.1.1 Build 3)  -->
  <defs>
    <style>
      .st0 {
        fill: #fff;
      }
    </style>
  </defs>
  <path class="st0" d="M339.74,338.63l41.6-63.65,210.44-97.65c6.22-1.84,4.41,3.11,4.17,7.23-2.32,39.76-9.41,83.91-16.14,122.7l-72.46,57.89c-24.19,89.16-84.2,166.46-161.73,215.68-18.77,11.92-37.75,26.77-60.48,18.28-82.4-30.77-174.38-150-195.36-234.66l-70.38-57.71L1.26,173.96l219.4,102.33,41.35,62.29c10.15-9.28,21.01-39.74,33.71-42.51,23.39-5.1,27.17,33.45,44.02,42.56ZM281.83,567.34l-37.92-91.68-114.55-82.14c18.28,53.67,61.63,101.53,103.62,138.81,5,4.44,45.51,38.13,48.84,35h0ZM315.38,567.34c4.05,3.3,50.21-34.32,56.34-39.7,39.59-34.81,77.83-80,93.07-131.06l-108.34,79.2-41.07,91.56h0Z"/>
  <path class="st0" d="M565.94,173.95l-7.01-29.67-264.73-65.1L46.54,145.15c-12.1,2.81-4.73,26.34-6.99,28.81l-37.22-13.22c-4.74-24.02,5.94-39.77,27.59-49.06,32.63-14.04,238.7-69.19,268.59-68.58l283.02,71.03c15.52,7.54,20.95,23.9,17.45,40.2l-33.05,19.62h.01Z"/>
</svg>